<?xml version="1.0" encoding="utf-8"?>
<!-- Generator: Adobe Illustrator 19.1.0, SVG Export Plug-In . SVG Version: 6.00 Build 0)  -->
<svg version="1.1" id="Layer_1" xmlns="http://www.w3.org/2000/svg" xmlns:xlink="http://www.w3.org/1999/xlink" x="0px" y="0px"
	 viewBox="0 0 34 34" style="enable-background:new 0 0 34 34;" xml:space="preserve">
<style type="text/css">
	.st0{fill:#231F20;}
</style>
<path class="st0" d="M20.5,17L33.3,4.3c1-1,1-2.6,0-3.5c-1-1-2.6-1-3.5,0L17,13.5L4.3,0.7c-1-1-2.6-1-3.5,0c-1,1-1,2.6,0,3.5
	L13.5,17L0.7,29.7c-1,1-1,2.6,0,3.5C1.2,33.8,1.9,34,2.5,34s1.3-0.2,1.8-0.7L17,20.5l12.7,12.7c0.5,0.5,1.1,0.7,1.8,0.7
	s1.3-0.2,1.8-0.7c1-1,1-2.6,0-3.5L20.5,17z"/>
<g>
</g>
<g>
</g>
<g>
</g>
<g>
</g>
<g>
</g>
<g>
</g>
</svg>
