<?xml version="1.0" encoding="utf-8"?>
<!-- Generator: Adobe Illustrator 19.1.0, SVG Export Plug-In . SVG Version: 6.00 Build 0)  -->
<svg version="1.1" id="Layer_1" xmlns="http://www.w3.org/2000/svg" xmlns:xlink="http://www.w3.org/1999/xlink" x="0px" y="0px"
	 viewBox="0 0 114.8 132" style="enable-background:new 0 0 114.8 132;" xml:space="preserve">
<style type="text/css">
	.st0{fill:#FBD13B;}
	.st1{fill:#E6BF36;}
</style>
<g>
	<path class="st0" d="M57.5,132C-10.4,112.7,0.7,17,0.7,17C33.6,21.1,57.3-0.1,57.4,0c1.7,1.4,25,21,56.7,17c0,0,11.1,95.7-56.8,115
		L57.5,132z M57.3,118.7c54.2-15.4,45.3-91.7,45.3-91.7c-25.3,3.2-43.9-12.4-45.2-13.6c-0.1,0-19,16.9-45.2,13.6
		c0,0-8.9,76.3,45.3,91.8L57.3,118.7z"/>
	<path class="st0" d="M57.3,109.4C102,96.7,94.7,33.8,94.7,33.8c-20.8,2.6-36.2-10.2-37.3-11.2c0,0-15.7,13.9-37.3,11.2
		c0,0-7.3,63,37.4,75.7L57.3,109.4z"/>
	<g>
		<path class="st1" d="M57.4,109.5C57.4,109.5,57.4,109.4,57.4,109.5c-0.1,0-0.1,0-0.1,0L57.4,109.5z"/>
		<path class="st1" d="M94.7,33.8c-20.8,2.6-36.2-10.2-37.3-11.2c0,0-0.1,0-0.1,0.1v86.7c0,0,0.1,0,0.1,0
			C102,96.7,94.7,33.8,94.7,33.8z"/>
	</g>
</g>
<g>
</g>
<g>
</g>
<g>
</g>
<g>
</g>
<g>
</g>
<g>
</g>
</svg>
